<?xml version="1.0" encoding="UTF-8"?>
<svg width="120px" height="120px" viewBox="0 0 120 120" version="1.1" xmlns="http://www.w3.org/2000/svg">
    <title>Success Icon</title>
    <g id="Success-Icon" stroke="none" stroke-width="1" fill="none" fill-rule="evenodd">
        <circle id="Background" fill="#4CAF50" cx="60" cy="60" r="60"></circle>
        <path d="M85,45 C86.6568542,45 88,46.3431458 88,48 C88,49.6568542 86.6568542,51 85,51 L85,51 L55,51 C53.3431458,51 52,49.6568542 52,48 C52,46.3431458 53.3431458,45 55,45 L55,45 Z M85,60 C86.6568542,60 88,61.3431458 88,63 C88,64.6568542 86.6568542,66 85,66 L85,66 L55,66 C53.3431458,66 52,64.6568542 52,63 C52,61.3431458 53.3431458,60 55,60 L55,60 Z M50,75 C51.6568542,75 53,76.3431458 53,78 C53,79.6568542 51.6568542,81 50,81 L50,81 L40,81 C38.3431458,81 37,79.6568542 37,78 C37,76.3431458 38.3431458,75 40,75 L40,75 Z" id="Thumb" fill="#FFFFFF" fill-rule="nonzero" transform="translate(62.500, 63.000) rotate(40.000) translate(-62.500, -63.000)"></path>
    </g>
</svg>
